<svg xmlns="http://www.w3.org/2000/svg" width="1401.214" height="490.948" viewBox="0 0 1401.214 490.948">
  <g id="Grupo_13036" data-name="Grupo 13036" transform="translate(-196.581 -653.694)">
    <path id="Trazado_29882" data-name="Trazado 29882" d="M196.845,812.724c75.623,4.41,152.005-9.349,222.863-40.143,38.54-16.748,80.776-47.409,82.157-94.893.131-4.486-.241-9.325-2.722-12.783-3.28-4.571-9.038-5.233-14.176-5.552l-29.987-1.86c-8.163-.506-18.219.189-21.811,8.661-3.079,7.262.666,15.743,4.313,22.644q15.9,30.083,31.8,60.167c8.3,15.7,16.942,31.837,29.907,42.532,21.074,17.386,49.98,17.011,74.569,7.594s46.215-26.692,68.6-41.75a453.213,453.213,0,0,1,130.595-60.7c29.252-8.188,65.979-10.2,83.309,18.2,10.135,16.605,9.852,39.672,2.459,58.1s-20.939,32.733-35.7,43.8c-43.574,32.669-97.333,39.885-148.783,48.322A1999.285,1999.285,0,0,0,348.574,947.2c-9.709,3.333-20.041,7.24-26.215,16.5-5.414,8.124-6.6,18.868-7.563,29.055-3.359,35.423-4.322,77.074,19.389,99.911,20.887,20.118,51.548,16.19,78.4,11.112,53.807-10.175,108.919-21.067,156.108-52.578,39.455-26.349,71.558-66.01,112.155-89.939C725.01,935.23,775.764,929.728,825,922.893a2100.99,2100.99,0,0,0,276.047-57.487c22.166-6.189,45.463-13.528,61.317-32.44,18.46-22.022,22.832-54.851,36.262-81.279,20.958-41.239,61.372-62.84,99.335-82a177.548,177.548,0,0,0-99.243-9.821" transform="translate(0 0.174)" fill="none" stroke="#613f75" stroke-linecap="round" stroke-linejoin="round" stroke-width="0.5" stroke-dasharray="12"/>
    <path id="Trazado_29883" data-name="Trazado 29883" d="M914.393,742.616a553.12,553.12,0,0,1,90.159,56.711c11.532,8.912,23.129,18.833,28.69,32.3,8.6,20.836.632,44.93-11.2,64.119s-27.525,36.133-36.383,56.862c-1.965,4.6-3.594,9.7-2.313,14.531,1.02,3.849,3.753,6.988,6.559,9.814,24.584,24.75,59.8,35.866,94.3,41.06,38.5,5.8,78.487,5.2,115.587-6.6s71.148-35.5,91.16-68.891c25.23-42.1,26.853-95.994,55.9-135.556,24.205-32.967,63.7-50.76,102.416-63.949,4.861-1.656,10.234-3.257,15.009-1.366,5.778,2.287,8.518,8.75,10.622,14.6q15.433,42.873,27.734,86.788c3.191,11.4,6.229,23.484,3.158,34.913-6.684,24.866-36.885,33.555-55.853,50.968-16.336,15-24.3,36.908-30.077,58.316-4.208,15.588-7.5,32.56-1.472,47.539,9.093,22.614,35.525,32.309,59.432,37.054a369.859,369.859,0,0,0,74.988,7.058" transform="translate(44.733 65.493)" fill="none" stroke="#613f75" stroke-linecap="round" stroke-linejoin="round" stroke-width="0.5" stroke-dasharray="12"/>
    <path id="Trazado_29884" data-name="Trazado 29884" d="M1555.226,663.245c-37.937-19.213-83.422-6.508-117.989,19.773s-60.686,64.427-87.263,100.943c-67.255,92.407-142.128,179.2-231.229,242.8s-193.739,103.013-298.461,95.122c-30.543-2.3-60.743-8.546-90.865-14.779-19.312-4-38.8-8.053-56.914-16.726-81.707-39.13-115.1-159.853-196.169-200.68-33.882-17.062-72.1-17.853-109.1-17.176-52.66.966-111.078,7.3-146.646,51.855" transform="translate(1.481)" fill="none" stroke="#613f75" stroke-linecap="round" stroke-linejoin="round" stroke-width="0.5" stroke-dasharray="12"/>
  </g>
</svg>
