<svg xmlns="http://www.w3.org/2000/svg" width="55.391" height="55.391" viewBox="0 0 55.391 55.391">
  <g id="Grupo_9864" data-name="Grupo 9864" transform="translate(-334.08 -6455.371)">
    <path id="Trazado_10259" data-name="Trazado 10259" d="M380.3,6455.371H343.254a9.184,9.184,0,0,0-9.174,9.174v32.681l.294-.158a6.6,6.6,0,0,0-.294,1.948v4.63c0,3.437,2.653,7.116,6.6,7.116h19.551a6.608,6.608,0,0,0,6.111-4.116H380.3a9.184,9.184,0,0,0,9.173-9.174v-32.927A9.183,9.183,0,0,0,380.3,6455.371Z" fill="#fff"/>
    <path id="Trazado_10260" data-name="Trazado 10260" d="M372.58,6489.22l-7.2.02a1.545,1.545,0,0,1-1.543-1.543l.02-7.2a1.5,1.5,0,0,1,.947-1.42,1.523,1.523,0,0,1,1.688.329l2.14,2.141,6.092-6.113a2.066,2.066,0,0,1,2.922,2.923l-6.092,6.112,2.12,2.12a1.556,1.556,0,0,1,.329,1.687A1.524,1.524,0,0,1,372.58,6489.22Z" fill="#607d8b"/>
    <path id="Trazado_10261" data-name="Trazado 10261" d="M377.643,6478.354l-6.092,6.112,2.12,2.12a1.556,1.556,0,0,1,.329,1.687,1.524,1.524,0,0,1-1.42.947l-7.2.02a1.545,1.545,0,0,1-1.543-1.543l.02-7.2a1.5,1.5,0,0,1,.947-1.42,1.523,1.523,0,0,1,1.688.329l2.14,2.141,6.092-6.113a2.066,2.066,0,0,1,2.922,2.923Z" fill="#fff"/>
    <path id="Trazado_10262" data-name="Trazado 10262" d="M386.472,6464.545v32.927a6.192,6.192,0,0,1-6.174,6.174H367.95v-4.116H380.3a2.064,2.064,0,0,0,2.058-2.058v-28.811H341.2V6491.3h-.514a7.6,7.6,0,0,0-3.6.906v-27.659a6.192,6.192,0,0,1,6.174-6.174H380.3a6.192,6.192,0,0,1,6.174,6.174Z" fill="#607d8b"/>
    <path id="Trazado_10263" data-name="Trazado 10263" d="M341.2,6468.661V6491.3h19.036a7.721,7.721,0,0,1,7.718,7.718v.514H380.3a2.064,2.064,0,0,0,2.058-2.058v-28.811Zm36.447,9.693-6.092,6.112,2.12,2.12a1.56,1.56,0,0,1,.329,1.687,1.526,1.526,0,0,1-1.42.947l-7.2.02a1.545,1.545,0,0,1-1.543-1.543l.02-7.2a1.507,1.507,0,0,1,.947-1.42,1.522,1.522,0,0,1,1.688.329l2.14,2.141,6.092-6.113a2.066,2.066,0,0,1,2.922,2.923Z" fill="#fff"/>
    <path id="Trazado_10264" data-name="Trazado 10264" d="M361.776,6458.371H343.254a6.192,6.192,0,0,0-6.174,6.174V6492.2a7.6,7.6,0,0,1,3.6-.906h.514v-22.637h20.58Z" fill="#546d79"/>
    <path id="Trazado_10265" data-name="Trazado 10265" d="M361.776,6468.661H341.2V6491.3h19.036a7.761,7.761,0,0,1,1.544.155Z" fill="#dedede"/>
    <path id="Trazado_10266" data-name="Trazado 10266" d="M360.232,6507.762h-19.55c-2.062,0-3.6-2.173-3.6-4.116v-4.63a3.606,3.606,0,0,1,3.6-3.6h19.55a3.606,3.606,0,0,1,3.6,3.6v5.145A3.606,3.606,0,0,1,360.232,6507.762Z" fill="#2196f3"/>
    <path id="Trazado_10267" data-name="Trazado 10267" d="M350.457,6495.414h-9.775a3.606,3.606,0,0,0-3.6,3.6v4.63c0,1.943,1.54,4.116,3.6,4.116h9.775Z" fill="#1d83d4"/>
    <path id="Trazado_10268" data-name="Trazado 10268" d="M364.436,6488.637a2.074,2.074,0,0,0,2.922,0l6.092-6.112,2.14,2.141a1.544,1.544,0,0,0,2.634-1.091l.021-7.2a1.546,1.546,0,0,0-1.544-1.544l-7.2.021a1.525,1.525,0,0,0-1.42.947,1.562,1.562,0,0,0,.33,1.687l2.119,2.12-6.091,6.112A2.074,2.074,0,0,0,364.436,6488.637Z" fill="#4caf50"/>
    <path id="Trazado_10269" data-name="Trazado 10269" d="M365.9,6489.24a2.056,2.056,0,0,0,1.461-.6l6.092-6.112,2.14,2.141a1.521,1.521,0,0,0,1.688.329,1.508,1.508,0,0,0,.946-1.42l.021-7.2a1.55,1.55,0,0,0-.418-1.056l-13.356,13.356a2.061,2.061,0,0,0,1.426.568Z" fill="#429846"/>
  </g>
</svg>
