<svg xmlns="http://www.w3.org/2000/svg" xmlns:xlink="http://www.w3.org/1999/xlink" width="169.177" height="169.178" viewBox="0 0 169.177 169.178">
  <defs>
    <clipPath id="clip-path">
      <path id="Trazado_14825" data-name="Trazado 14825" d="M-432.283,154.293l-.906-9.336s17.156-8.049,15.314-27.025-19.41-24.565-30.555-23.484-27.307,9.948-25.465,28.922,20.226,23.575,20.226,23.575l.905,9.336Z" transform="translate(474.039 -94.32)" fill="none"/>
    </clipPath>
  </defs>
  <g id="Grupo_13086" data-name="Grupo 13086" transform="translate(-275.813 -13709)">
    <circle id="Elipse_790" data-name="Elipse 790" cx="59.813" cy="59.813" r="59.813" transform="translate(275.813 13793.588) rotate(-45)" fill="#fcfcfc"/>
    <path id="Trazado_14817" data-name="Trazado 14817" d="M-443.8,217.362a70.459,70.459,0,0,1-25.9-4.918l.766-1.932a68.535,68.535,0,0,0,33.374,4.275,67.983,67.983,0,0,0,45.626-25.717,67.98,67.98,0,0,0,14.078-50.448l2.064-.25A70.051,70.051,0,0,1-388.3,190.352a70.046,70.046,0,0,1-47.013,26.5A70.764,70.764,0,0,1-443.8,217.362Z" transform="translate(804.197 13646.736)" fill="#ff8f00"/>
    <path id="Trazado_14818" data-name="Trazado 14818" d="M-531.685,113.717l-2.072-.169a70.721,70.721,0,0,1,61.806-64.2,70.643,70.643,0,0,1,19.946.409l-.337,2.051a68.564,68.564,0,0,0-19.36-.4A68.634,68.634,0,0,0-531.685,113.717Z" transform="translate(823.873 13674.241)" fill="#ff8f00"/>
    <g id="Grupo_13080" data-name="Grupo 13080" transform="translate(414.212 13739.622)">
      <path id="Trazado_14819" data-name="Trazado 14819" d="M-348,82.764a1.385,1.385,0,0,1-1.386-1.386V74.1A1.386,1.386,0,0,1-348,72.719a1.386,1.386,0,0,1,1.386,1.386v7.274A1.386,1.386,0,0,1-348,82.764Z" transform="translate(353.027 -72.719)" fill="#ff8f00"/>
      <path id="Trazado_14820" data-name="Trazado 14820" d="M-345.98,80.74h-7.275a1.386,1.386,0,0,1-1.386-1.386,1.386,1.386,0,0,1,1.386-1.386h7.275a1.386,1.386,0,0,1,1.386,1.386A1.386,1.386,0,0,1-345.98,80.74Z" transform="translate(354.64 -74.332)" fill="#ff8f00"/>
    </g>
    <g id="Grupo_13081" data-name="Grupo 13081" transform="translate(294.5 13834.391)">
      <path id="Trazado_14821" data-name="Trazado 14821" d="M-520.794,219.551a1.386,1.386,0,0,1-1.386-1.386v-7.275a1.386,1.386,0,0,1,1.386-1.386,1.386,1.386,0,0,1,1.386,1.386v7.275A1.386,1.386,0,0,1-520.794,219.551Z" transform="translate(525.817 -209.505)" fill="#ff8f00"/>
      <path id="Trazado_14822" data-name="Trazado 14822" d="M-518.769,217.526h-7.274a1.385,1.385,0,0,1-1.386-1.386,1.386,1.386,0,0,1,1.386-1.386h7.274a1.386,1.386,0,0,1,1.386,1.386A1.385,1.385,0,0,1-518.769,217.526Z" transform="translate(527.429 -211.118)" fill="#ff8f00"/>
    </g>
    <g id="Grupo_13085" data-name="Grupo 13085" transform="translate(331.49 13754.588)">
      <rect id="Rectángulo_3082" data-name="Rectángulo 3082" width="12.981" height="12.981" rx="5.152" transform="translate(27.34 72.187) rotate(-5.886)" fill="#7fbdff"/>
      <g id="Grupo_13084" data-name="Grupo 13084" transform="translate(0 0)">
        <path id="Trazado_14823" data-name="Trazado 14823" d="M-432.283,154.293l-.906-9.336s17.156-8.049,15.314-27.025-19.41-24.565-30.555-23.484-27.307,9.948-25.465,28.922,20.226,23.575,20.226,23.575l.905,9.336Z" transform="translate(474.039 -94.32)" fill="#fed12e"/>
        <g id="Grupo_13083" data-name="Grupo 13083">
          <g id="Grupo_13082" data-name="Grupo 13082" clip-path="url(#clip-path)">
            <path id="Trazado_14824" data-name="Trazado 14824" d="M-440.267,166.253l-.437-.088-.069-.221.337-.1-.346-.02c0-.625-1.873-17.238-5.166-25.513-3.141.552-6.869.346-8.885-1.785-2.081-2.2-1.85-4.539-.939-5.993a3.567,3.567,0,0,1,4.078-1.68c3.794,1.2,5.25,5.635,6.032,8.019.069.21.132.4.193.581a13.235,13.235,0,0,0,3.138-1.043,6.624,6.624,0,0,0,1.75-1.37,9.463,9.463,0,0,1-4.452-8.123c.149-3.058,2.085-5.078,4.825-5.031a3.709,3.709,0,0,1,3.866,3.016c.65,2.819-.86,7.167-3.093,9.952a14.021,14.021,0,0,0,5.687,1.584c1.264-4.928,3.232-7.351,4.5-8.46,1.531-1.34,3.245-1.9,4.589-1.485,1.774.54,2.822,2.762,2.386,5.057-.577,3.035-3.758,6.064-10.918,5.673-1.241,5.295-1.654,13.434.4,25.859l-.736.121c-2.051-12.4-1.649-20.617-.4-26.031a14.628,14.628,0,0,1-6.007-1.736,7.5,7.5,0,0,1-2.058,1.639,13.854,13.854,0,0,1-3.211,1.089c2.818,7.209,5.205,22.972,5.137,25.568l.01,0-.01,0a.749.749,0,0,1-.056.351Zm-12.4-34.807a2.968,2.968,0,0,0-2.471,1.48c-.762,1.218-.94,3.194.849,5.085s5.179,2.066,8.081,1.58c-.051-.152-.1-.315-.162-.489-.74-2.257-2.118-6.459-5.546-7.54A2.48,2.48,0,0,0-452.668,131.446Zm19.658,7.038c6.586.322,9.489-2.372,10-5.076.36-1.894-.479-3.781-1.871-4.2-.845-.259-2.308-.044-3.88,1.334C-429.956,131.585-431.8,133.86-433.01,138.484Zm-7.3-13.854c-2.294,0-3.853,1.688-3.982,4.323a8.714,8.714,0,0,0,4.208,7.516c2.122-2.6,3.614-6.785,3.011-9.4a2.952,2.952,0,0,0-3.152-2.438Z" transform="translate(468.633 -103.402)" fill="#0d0c73"/>
          </g>
        </g>
        <path id="Rectángulo_3083" data-name="Rectángulo 3083" d="M0,0H30.174a0,0,0,0,1,0,0V8.844a13.75,13.75,0,0,1-13.75,13.75H13.75A13.75,13.75,0,0,1,0,8.844V0A0,0,0,0,1,0,0Z" transform="translate(16.557 59.422) rotate(-5.886)" fill="#0d0c73"/>
      </g>
      <rect id="Rectángulo_3084" data-name="Rectángulo 3084" width="38.978" height="2.599" rx="1.299" transform="translate(13.203 63.119) rotate(-5.886)" fill="#7fbdff"/>
      <rect id="Rectángulo_3085" data-name="Rectángulo 3085" width="38.978" height="2.599" rx="1.299" transform="translate(13.826 67.865) rotate(-5.886)" fill="#7fbdff"/>
    </g>
  </g>
</svg>
