<svg xmlns="http://www.w3.org/2000/svg" xmlns:xlink="http://www.w3.org/1999/xlink" width="625.093" height="323.705" viewBox="0 0 625.093 323.705">
  <defs>
    <clipPath id="clip-path">
      <path id="Trazado_30076" data-name="Trazado 30076" d="M243.431,376.95H211.282V360.335a16.075,16.075,0,0,1,16.075-16.075h0a16.075,16.075,0,0,1,16.075,16.075Z" transform="translate(-211.282 -344.26)" fill="#7986cb"/>
    </clipPath>
  </defs>
  <g id="Grupo_33002" data-name="Grupo 33002" transform="translate(-14.792 -47.706)" style="isolation: isolate">
    <g id="Grupo_32926" data-name="Grupo 32926" transform="translate(14.792 47.706)">
      <path id="Trazado_29993" data-name="Trazado 29993" d="M636.83,367.083H29.23c-18.724-13.825-18.972-46.008-2.278-62.226,11.1-10.784,27.135-14.213,41.852-19s30.306-12.884,35.163-27.577c6.2-18.756-7.848-37.677-21.289-52.153-21.46-23.115-45.292-48.762-45.508-80.3C37.013,103.013,50.947,80.687,71.507,70.8s46.7-6.819,64.416,7.552c11.794,9.567,19.689,23.3,31.6,32.71,24.3,19.2,60,16.145,88.235,3.41s51.95-33.572,78.666-49.238c17.739-10.4,37.707-18.68,58.231-17.4S434.033,62.168,439,82.123c5.9,23.705-11.209,47.58-9.565,71.954,1.7,25.2,26.689,46.381,51.828,43.93,14.585-1.423,27.609-9.452,39.688-17.75s24.184-17.256,38.351-21,31.219-.942,39.947,10.83c9.77,13.179,5.718,32.218-2.7,46.3s-20.621,25.779-27.8,40.532-7.668,34.987,5.149,45.228c12.94,10.339,32.5,5.694,47.443,12.841C636.795,322.378,644.627,351.829,636.83,367.083Z" transform="translate(-14.792 -47.706)" fill="#ffe695"/>
      <path id="Trazado_29994" data-name="Trazado 29994" d="M44.533,365.127c-19.307-16.555-16.6-51.968,5-65.391,18.541-11.522,45.186-7.655,60.319-23.387,13.712-14.256,10.711-38.1.919-55.281S85.8,190.322,75.489,173.444C60.573,149.033,57.178,116.8,70.714,91.593s45.336-40.449,72.47-31.386c29.743,9.934,46.486,43.5,75.969,54.187,21.322,7.725,45.409,1.793,65.482-8.761s37.522-25.445,56.888-37.247S383.507,47.739,405.9,51.3s43.321,23.04,41.957,45.678c-1.381,22.937-23.844,42.681-18.962,65.134,3.668,16.873,22.415,26.966,39.679,26.616s33.271-8.583,48.436-16.839,30.821-16.921,48.035-18.266,36.52,6.908,42.109,23.245c6.045,17.669-5.442,36.015-15.668,51.639s-19.872,35.814-10.618,52.034c8.515,14.929,28.521,18.165,41.832,29.037,17.78,14.522,20.312,44.193,5.249,61.518" transform="translate(-17.125 -48.095)" fill="none" stroke="#ebc488" stroke-linecap="round" stroke-linejoin="round" stroke-width="1" stroke-dasharray="8 0 0 0 0"/>
      <path id="Trazado_29995" data-name="Trazado 29995" d="M159.773,169.207a19.86,19.86,0,0,0,15.36,3.871,19.528,19.528,0,0,0,12.487-6.918,14.833,14.833,0,0,0,2.564-13.778c-3.107-8.8-17.654-14.622-26.125-10.368C153.785,147.176,150.4,161.562,159.773,169.207Z" transform="translate(-34.202 -60.632)" fill="#fff"/>
      <path id="Trazado_29996" data-name="Trazado 29996" d="M428.3,229.582a12.8,12.8,0,0,0,9.9,2.5,12.59,12.59,0,0,0,8.047-4.458,9.561,9.561,0,0,0,1.653-8.88c-2-5.674-11.378-9.423-16.836-6.681C424.44,215.383,422.256,224.655,428.3,229.582Z" transform="translate(-71.842 -70.449)" fill="#fff"/>
      <path id="Trazado_29997" data-name="Trazado 29997" d="M197.625,321.459a12.8,12.8,0,0,0,9.9,2.495,12.582,12.582,0,0,0,8.048-4.458,9.561,9.561,0,0,0,1.653-8.88c-2-5.674-11.378-9.424-16.836-6.682C193.767,307.26,191.583,316.531,197.625,321.459Z" transform="translate(-39.742 -83.235)" fill="#fff"/>
      <path id="Trazado_29998" data-name="Trazado 29998" d="M534.625,103.128c-2.687,10.355-6.789,20.414-7.958,31.048s1.187,22.44,9.33,29.38c5.058,4.31,11.836,6.259,18.481,6.343s13.2-1.57,19.468-3.788c6.963-2.465,13.879-5.787,18.76-11.33s7.328-13.724,4.467-20.535c-2.942-7-10.405-10.827-17.411-13.766s-14.612-5.952-18.71-12.348c-3.116-4.864-3.651-10.879-4.272-16.622s-1.549-11.8-5.219-16.256c-4.01-4.874-14.225-7.383-15.451.909-.616,4.166,1.059,9.021.813,13.345A70.327,70.327,0,0,1,534.625,103.128Z" transform="translate(-85.985 -50.913)" fill="#ffeccf"/>
      <path id="Trazado_29999" data-name="Trazado 29999" d="M51.443,298.724c7.468-2.053,14.594-6.472,18.315-13.264a27.249,27.249,0,0,0,2.765-16.2,49.063,49.063,0,0,0-5.076-15.827,47.123,47.123,0,0,0-10.4-14.514c-4.46-4-10.193-6.774-16.18-6.893-4.086-.081-8.662,1.489-10.3,5.235-1.247,2.856-.438,6.235,1.092,8.95s3.719,4.995,5.484,7.563c5.526,8.039,6.177,19.879-.345,27.133-3.7,4.118-14.046,10.845-8.217,17.5C32.987,303.435,46.074,300.2,51.443,298.724Z" transform="translate(-16.469 -73.355)" fill="#ffeccf"/>
      <path id="Trazado_30000" data-name="Trazado 30000" d="M415.939,134c9.35.229,18.324-6.251,21.591-15.015,6.6-17.693-13.572-36.751-29.962-25.282C391.474,104.961,393.09,133.439,415.939,134Z" transform="translate(-67.967 -53.622)" fill="#fff"/>
    </g>
    <g id="Grupo_33001" data-name="Grupo 33001" transform="translate(41.835 112.542)">
      <g id="Grupo_32955" data-name="Grupo 32955" transform="translate(0 18.648)">
        <path id="Trazado_30055" data-name="Trazado 30055" d="M104.126,388.284a5.538,5.538,0,0,0-4.525,2.344,10.836,10.836,0,0,1-4.3-4.349,24.374,24.374,0,0,1-1.729-5.03,24.078,24.078,0,0,0-2.656-6.919,13.712,13.712,0,0,0-10.989-6.2v-88.3H75.43v88.327a13.714,13.714,0,0,0-10.46,6.176,24.078,24.078,0,0,0-2.656,6.919,24.324,24.324,0,0,1-1.73,5.03,10.828,10.828,0,0,1-4.3,4.349,5.551,5.551,0,1,0,.84,4.6,15.48,15.48,0,0,0,7.441-6.862,28.132,28.132,0,0,0,2.093-5.958,20.387,20.387,0,0,1,2.11-5.675,9.23,9.23,0,0,1,6.665-4.051v16.078a5.55,5.55,0,1,0,4.494,0V372.621a9.254,9.254,0,0,1,7.193,4.114,20.387,20.387,0,0,1,2.11,5.675,28.132,28.132,0,0,0,2.093,5.958,15.48,15.48,0,0,0,7.441,6.862,5.547,5.547,0,1,0,5.366-6.945Z" transform="translate(-46.206 -163.492)" fill="#080033"/>
        <path id="Trazado_30056" data-name="Trazado 30056" d="M102.414,237.586c-2.323-6.086-5.405-11.942-6.673-18.332-2.582-13.007,2.727-26.393,11.405-36.419V166.948a28.525,28.525,0,0,1-22.7-22.262H71.487a28.525,28.525,0,0,1-22.7,22.262v15.887c8.677,10.026,13.986,23.411,11.405,36.419-1.268,6.389-4.351,12.245-6.673,18.332a80.635,80.635,0,0,0-2.625,48.9,157.488,157.488,0,0,0,27.073,2.762,157.485,157.485,0,0,0,27.072-2.762A80.634,80.634,0,0,0,102.414,237.586Z" transform="translate(-46.496 -144.686)" fill="#361274"/>
        <path id="Trazado_30057" data-name="Trazado 30057" d="M64.2,162.343a32.2,32.2,0,0,0,31.02-.355" transform="translate(-48.71 -147.094)" fill="none" stroke="#fff" stroke-linecap="round" stroke-linejoin="round" stroke-width="0.723" stroke-dasharray="2.89 0 0 0 0"/>
        <path id="Trazado_30058" data-name="Trazado 30058" d="M48.46,187.868a92.49,92.49,0,0,1,59.3.289" transform="translate(-46.52 -150.036)" fill="none" stroke="#fff" stroke-linecap="round" stroke-linejoin="round" stroke-width="0.723" stroke-dasharray="2.89 0 0 0 0"/>
        <path id="Trazado_30059" data-name="Trazado 30059" d="M54.864,248.87a68.114,68.114,0,0,0,47.5-.77" transform="translate(-47.411 -159.077)" fill="none" stroke="#fff" stroke-linecap="round" stroke-linejoin="round" stroke-width="0.723" stroke-dasharray="2.89 0 0 0 0"/>
        <path id="Trazado_30060" data-name="Trazado 30060" d="M48.315,299.5a103.14,103.14,0,0,0,58.776-.77" transform="translate(-46.499 -166.122)" fill="none" stroke="#fff" stroke-linecap="round" stroke-linejoin="round" stroke-width="0.804" stroke-dasharray="3.215 0 0 0 0"/>
        <line id="Línea_17" data-name="Línea 17" y2="144.563" transform="translate(31.471)" fill="none" stroke="#fff" stroke-linecap="round" stroke-linejoin="round" stroke-width="0.804" stroke-dasharray="3.215 0 0 0 0"/>
      </g>
      <g id="Grupo_32963" data-name="Grupo 32963" transform="translate(139.7 190.45)">
        <path id="Trazado_30061" data-name="Trazado 30061" d="M243.431,376.95H211.282V360.335a16.075,16.075,0,0,1,16.075-16.075h0a16.075,16.075,0,0,1,16.075,16.075Z" transform="translate(-208.878 -344.26)" fill="#9fa8da"/>
        <rect id="Rectángulo_7602" data-name="Rectángulo 7602" width="36.958" height="5.063" rx="2.532" transform="translate(0 29.531)" fill="#7986cb"/>
        <g id="Grupo_32962" data-name="Grupo 32962" transform="translate(2.404)">
          <g id="Grupo_32961" data-name="Grupo 32961" clip-path="url(#clip-path)">
            <g id="Grupo_32960" data-name="Grupo 32960" transform="translate(-2.331 -2.331)">
              <g id="Grupo_32956" data-name="Grupo 32956" transform="translate(16.075)">
                <path id="Trazado_30062" data-name="Trazado 30062" d="M231.909,343.883a2.331,2.331,0,1,1-2.331-2.331A2.331,2.331,0,0,1,231.909,343.883Z" transform="translate(-227.247 -341.552)" fill="#7986cb"/>
              </g>
              <g id="Grupo_32957" data-name="Grupo 32957" transform="translate(0.647 1.771)">
                <path id="Trazado_30063" data-name="Trazado 30063" d="M238.51,353.99a2.331,2.331,0,1,1-2.331-2.331A2.331,2.331,0,0,1,238.51,353.99Z" transform="translate(-212.738 -344.729)" fill="#7986cb"/>
                <path id="Trazado_30064" data-name="Trazado 30064" d="M249.155,353.99a2.331,2.331,0,1,1-2.331-2.331A2.331,2.331,0,0,1,249.155,353.99Z" transform="translate(-214.22 -344.729)" fill="#7986cb"/>
                <path id="Trazado_30065" data-name="Trazado 30065" d="M242.554,345.94a2.331,2.331,0,1,1-2.331-2.331A2.331,2.331,0,0,1,242.554,345.94Z" transform="translate(-213.301 -343.609)" fill="#7986cb"/>
                <path id="Trazado_30066" data-name="Trazado 30066" d="M220.606,345.94a2.331,2.331,0,1,1-2.331-2.331A2.331,2.331,0,0,1,220.606,345.94Z" transform="translate(-210.247 -343.609)" fill="#7986cb"/>
                <path id="Trazado_30067" data-name="Trazado 30067" d="M213.988,353.99a2.331,2.331,0,1,1-2.331-2.331A2.331,2.331,0,0,1,213.988,353.99Z" transform="translate(-209.326 -344.729)" fill="#7986cb"/>
                <path id="Trazado_30068" data-name="Trazado 30068" d="M225.158,353.99a2.331,2.331,0,1,1-2.331-2.331A2.331,2.331,0,0,1,225.158,353.99Z" transform="translate(-210.88 -344.729)" fill="#7986cb"/>
              </g>
              <g id="Grupo_32958" data-name="Grupo 32958" transform="translate(4.581 16.8)">
                <path id="Trazado_30069" data-name="Trazado 30069" d="M245.261,363.4a2.331,2.331,0,1,1-2.33-2.331A2.331,2.331,0,0,1,245.261,363.4Z" transform="translate(-217.611 -361.068)" fill="#7986cb"/>
                <path id="Trazado_30070" data-name="Trazado 30070" d="M231.909,363.4a2.331,2.331,0,1,1-2.331-2.331A2.331,2.331,0,0,1,231.909,363.4Z" transform="translate(-215.753 -361.068)" fill="#7986cb"/>
                <path id="Trazado_30071" data-name="Trazado 30071" d="M218.556,363.4a2.331,2.331,0,1,1-2.331-2.331A2.331,2.331,0,0,1,218.556,363.4Z" transform="translate(-213.895 -361.068)" fill="#7986cb"/>
              </g>
              <g id="Grupo_32959" data-name="Grupo 32959" transform="translate(0 25.501)">
                <path id="Trazado_30072" data-name="Trazado 30072" d="M251.863,373.505a2.331,2.331,0,1,1-2.331-2.33A2.331,2.331,0,0,1,251.863,373.505Z" transform="translate(-213.949 -371.175)" fill="#7986cb"/>
                <path id="Trazado_30073" data-name="Trazado 30073" d="M213.235,373.505a2.331,2.331,0,1,1-2.33-2.33A2.331,2.331,0,0,1,213.235,373.505Z" transform="translate(-208.574 -371.175)" fill="#7986cb"/>
                <path id="Trazado_30074" data-name="Trazado 30074" d="M238.51,373.505a2.331,2.331,0,1,1-2.331-2.33A2.331,2.331,0,0,1,238.51,373.505Z" transform="translate(-212.091 -371.175)" fill="#7986cb"/>
                <path id="Trazado_30075" data-name="Trazado 30075" d="M225.158,373.505a2.331,2.331,0,1,1-2.331-2.33A2.331,2.331,0,0,1,225.158,373.505Z" transform="translate(-210.233 -371.175)" fill="#7986cb"/>
              </g>
            </g>
          </g>
        </g>
      </g>
      <g id="Grupo_32973" data-name="Grupo 32973" transform="translate(128.887 225.039)">
        <g id="Grupo_32968" data-name="Grupo 32968" transform="translate(5.558 9.721)">
          <g id="Grupo_32965" data-name="Grupo 32965" transform="translate(0 0.007)">
            <g id="Grupo_32964" data-name="Grupo 32964">
              <rect id="Rectángulo_7603" data-name="Rectángulo 7603" width="1.658" height="47.603" transform="translate(0 1.587) rotate(-73.237)" fill="#ff9029"/>
            </g>
          </g>
          <g id="Grupo_32967" data-name="Grupo 32967" transform="translate(0.002)">
            <g id="Grupo_32966" data-name="Grupo 32966">
              <rect id="Rectángulo_7604" data-name="Rectángulo 7604" width="47.603" height="1.658" transform="matrix(0.957, -0.289, 0.289, 0.957, 0, 13.743)" fill="#ff9029"/>
            </g>
          </g>
        </g>
        <g id="Grupo_32969" data-name="Grupo 32969" transform="translate(2.218)">
          <path id="Trazado_30077" data-name="Trazado 30077" d="M247.2,392.525H202.547a4.043,4.043,0,0,1-4.043-4.043h0a4.043,4.043,0,0,1,4.043-4.043H247.2a4.042,4.042,0,0,1,4.043,4.043h0A4.043,4.043,0,0,1,247.2,392.525Z" transform="translate(-198.504 -384.44)" fill="#ffb74a"/>
        </g>
        <g id="Grupo_32972" data-name="Grupo 32972" transform="translate(0 4.042)">
          <g id="Grupo_32970" data-name="Grupo 32970">
            <path id="Trazado_30078" data-name="Trazado 30078" d="M201.665,414.49h-5.737l6.59-25.354h5.737Z" transform="translate(-195.928 -389.136)" fill="#ffb74a"/>
          </g>
          <g id="Grupo_32971" data-name="Grupo 32971" transform="translate(44.847)">
            <path id="Trazado_30079" data-name="Trazado 30079" d="M254.614,414.49h5.737l-6.59-25.354h-5.737Z" transform="translate(-248.024 -389.136)" fill="#ffb74a"/>
          </g>
        </g>
      </g>
      <path id="Trazado_30080" data-name="Trazado 30080" d="M156.282,279.779c7.892,1.685,15.289-4.247,20.607-10.317s10.629-13.142,18.5-14.92c6.219-1.4,12.76.938,18.025,4.535a89.783,89.783,0,0,1,11.124,9.672" transform="translate(-61.524 -141.267)" fill="none" stroke="#a777ce" stroke-linecap="round" stroke-linejoin="round" stroke-width="1.734"/>
      <g id="Grupo_32977" data-name="Grupo 32977" transform="translate(486.51 74.031)">
        <g id="Grupo_32974" data-name="Grupo 32974" transform="translate(42.113)">
          <path id="Trazado_30081" data-name="Trazado 30081" d="M683.44,209.67a.879.879,0,0,0-1.64-.151l-2.069,4.29,4.961.456Z" transform="translate(-662.989 -209.022)" fill="#1b141c"/>
          <path id="Trazado_30082" data-name="Trazado 30082" d="M678.755,214.584l-6.036,12.521,6.123,13.768,8.529-12.422-3.654-13.412Z" transform="translate(-662.013 -209.796)" fill="#ffb74a"/>
          <rect id="Rectángulo_7605" data-name="Rectángulo 7605" width="14.713" height="117.032" transform="matrix(0.996, 0.091, -0.091, 0.996, 10.706, 17.31)" fill="#fff"/>
        </g>
        <g id="Grupo_32975" data-name="Grupo 32975" transform="translate(20.971 13.724)">
          <path id="Trazado_30083" data-name="Trazado 30083" d="M642.774,225.459a.879.879,0,0,0-1.639.158l-1.233,4.6,4.959-.477Z" transform="translate(-636.305 -224.965)" fill="#1b141c"/>
          <path id="Trazado_30084" data-name="Trazado 30084" d="M639.32,230.99l-3.6,13.427L644.3,256.8l6.064-13.794-6.09-12.5Z" transform="translate(-635.723 -225.737)" fill="#ffb74a"/>
          <rect id="Rectángulo_7606" data-name="Rectángulo 7606" width="14.713" height="117.031" transform="translate(0 18.68) rotate(-5.493)" fill="#ba68c8"/>
        </g>
        <g id="Grupo_32976" data-name="Grupo 32976" transform="translate(50.034 34.756)">
          <path id="Trazado_30085" data-name="Trazado 30085" d="M709.4,250.14a.879.879,0,0,0-1.614-.33l-2.527,4.038,4.882,1Z" transform="translate(-674.462 -249.396)" fill="#1b141c"/>
          <path id="Trazado_30086" data-name="Trazado 30086" d="M704.063,254.568l-7.373,11.784,4.576,14.357,9.84-11.412-2.161-13.731Z" transform="translate(-673.27 -250.116)" fill="#ffb74a"/>
          <rect id="Rectángulo_7607" data-name="Rectángulo 7607" width="14.713" height="117.031" transform="translate(23.42 16.236) rotate(11.544)" fill="#d2bef6"/>
        </g>
        <path id="Trazado_30087" data-name="Trazado 30087" d="M686.76,401.541H623.383l-12.021-100.81h87.419Z" transform="translate(-611.362 -221.784)" fill="#080033"/>
      </g>
      <g id="Grupo_32979" data-name="Grupo 32979" transform="translate(215.891 87.031)">
        <path id="Trazado_30088" data-name="Trazado 30088" d="M491.345,235.577l-1.095-4.993H347.08l2.659,12.128h0l29.571,134.875,3.256,14.85,143.126-.206h0Z" transform="translate(-303.966 -225.022)" fill="#361274"/>
        <g id="Grupo_32978" data-name="Grupo 32978">
          <path id="Trazado_30089" data-name="Trazado 30089" d="M444.643,394.889H301.472L297,415.3H440.168Z" transform="translate(-296.997 -247.886)" fill="#556bc1"/>
          <path id="Trazado_30090" data-name="Trazado 30090" d="M475.982,229.923H332.811L298.466,386.577H441.637Z" transform="translate(-297.201 -224.93)" fill="#f5f5f5"/>
          <path id="Trazado_30091" data-name="Trazado 30091" d="M431.553,285c-2.594-5.2-7.926-8.28-14.326-8.28-5.735,8.565-16.205,9.375-16.205,9.375s-10.115-.81-12.094-9.375h0c-6.4,0-13.085,3.082-17.957,8.28l-18.512,19.748L363.6,316.262l11.424-10.68-12.029,54.862h43.461l12.029-54.862,6.741,10.68,16.183-11.509Z" transform="translate(-304.715 -231.442)" fill="none" stroke="#1b141c" stroke-linecap="round" stroke-linejoin="round" stroke-width="0.653"/>
          <path id="Trazado_30092" data-name="Trazado 30092" d="M482.376,224.123H339.205l-2.659,12.128H479.717Z" transform="translate(-302.5 -224.123)" fill="#361274"/>
          <line id="Línea_18" data-name="Línea 18" x1="20.097" y2="91.666" transform="translate(133.22 42.446)" fill="none" stroke="#1b141c" stroke-linecap="round" stroke-linejoin="round" stroke-width="0.653" stroke-dasharray="2.612 0 0 0 0"/>
          <line id="Línea_19" data-name="Línea 19" x2="8.628" transform="translate(149.331 42.446)" fill="none" stroke="#1b141c" stroke-miterlimit="10" stroke-width="0.653"/>
          <line id="Línea_20" data-name="Línea 20" x1="1.892" y2="8.628" transform="translate(153.042 24.924)" fill="none" stroke="#1b141c" stroke-miterlimit="10" stroke-width="0.653"/>
          <line id="Línea_21" data-name="Línea 21" x1="1.892" y2="8.628" transform="translate(57.425 24.924)" fill="none" stroke="#1b141c" stroke-miterlimit="10" stroke-width="0.653"/>
          <line id="Línea_22" data-name="Línea 22" x2="8.628" transform="translate(129.234 134.112)" fill="none" stroke="#1b141c" stroke-miterlimit="10" stroke-width="0.653"/>
          <line id="Línea_23" data-name="Línea 23" x2="95.617" transform="translate(58.407 29.071)" fill="none" stroke="#1b141c" stroke-linecap="round" stroke-linejoin="round" stroke-width="0.653" stroke-dasharray="2.612 0 0 0 0"/>
        </g>
        <path id="Trazado_30093" data-name="Trazado 30093" d="M500.016,224.123l6.486,5.733L471.152,391.538h-7.84Z" transform="translate(-320.141 -224.123)" fill="#7b1fa2"/>
        <path id="Trazado_30094" data-name="Trazado 30094" d="M497.562,238.211l6.56,5.429L471.356,393.5l-6.575-5.768Z" transform="translate(-320.345 -226.083)" fill="#ccc"/>
        <path id="Trazado_30095" data-name="Trazado 30095" d="M507.77,230.783l-5.73,161.556-29.62.126Z" transform="translate(-321.408 -225.049)" fill="#080033"/>
      </g>
      <g id="Grupo_32983" data-name="Grupo 32983" transform="translate(42.375 74)">
        <g id="Grupo_32980" data-name="Grupo 32980" transform="translate(16.768)">
          <rect id="Rectángulo_7608" data-name="Rectángulo 7608" width="8.957" height="152.31" transform="translate(15.925 19.272)" fill="#1b141c"/>
          <path id="Trazado_30096" data-name="Trazado 30096" d="M144.6,405.8h-18.58a11.113,11.113,0,0,0-11.113,11.113h40.806A11.112,11.112,0,0,0,144.6,405.8Z" transform="translate(-114.91 -236.374)" fill="#1b141c"/>
          <circle id="Elipse_539" data-name="Elipse 539" cx="10.299" cy="10.299" r="10.299" transform="translate(8.004 20.041) rotate(-76.648)" fill="#1b141c"/>
        </g>
        <rect id="Rectángulo_7609" data-name="Rectángulo 7609" width="41.796" height="78.491" transform="translate(15.297 51.452)" fill="#556bc1"/>
        <g id="Grupo_32981" data-name="Grupo 32981" transform="translate(0 36.898)">
          <path id="Trazado_30097" data-name="Trazado 30097" d="M133.1,295.869l-17.033-20.444L99.04,254.981h68.13l-17.032,20.444Z" transform="translate(-95.933 -252.284)" fill="#78a4a5"/>
          <path id="Trazado_30098" data-name="Trazado 30098" d="M133.1,326.21l17.032,20.444L167.169,367.1H99.04l17.032-20.444Z" transform="translate(-95.933 -262.196)" fill="#78a4a5"/>
          <path id="Trazado_30099" data-name="Trazado 30099" d="M167.077,257.242H98.128a2.7,2.7,0,0,1-2.7-2.7h0a2.7,2.7,0,0,1,2.7-2.7h68.949a2.7,2.7,0,0,1,2.7,2.7h0A2.7,2.7,0,0,1,167.077,257.242Z" transform="translate(-95.431 -251.848)" fill="#486363"/>
          <path id="Trazado_30100" data-name="Trazado 30100" d="M167.077,375.968H98.128a2.7,2.7,0,0,1-2.7-2.7h0a2.7,2.7,0,0,1,2.7-2.7h68.949a2.7,2.7,0,0,1,2.7,2.7h0A2.7,2.7,0,0,1,167.077,375.968Z" transform="translate(-95.431 -268.37)" fill="#486363"/>
        </g>
        <rect id="Rectángulo_7610" data-name="Rectángulo 7610" width="50.506" height="78.491" transform="translate(10.942 51.452)" fill="#ba68c8"/>
        <g id="Grupo_32982" data-name="Grupo 32982" transform="translate(10.942 51.452)">
          <path id="Trazado_30101" data-name="Trazado 30101" d="M158.648,284.135l-25.253-3.845-25.253-3.845,25.253-3.845,25.253-3.845" transform="translate(-108.142 -268.754)" fill="none" stroke="#e2e6ff" stroke-linecap="round" stroke-linejoin="round" stroke-width="1.734"/>
          <path id="Trazado_30102" data-name="Trazado 30102" d="M108.142,302.463l25.253-3.845,25.253-3.845-25.253-3.845-25.253-3.845" transform="translate(-108.142 -271.305)" fill="none" stroke="#ebe1ff" stroke-linecap="round" stroke-linejoin="round" stroke-width="1.734"/>
          <path id="Trazado_30103" data-name="Trazado 30103" d="M158.648,320.791l-25.253-3.845L108.142,313.1l25.253-3.845,25.253-3.845" transform="translate(-108.142 -273.856)" fill="none" stroke="#ebe1ff" stroke-linecap="round" stroke-linejoin="round" stroke-width="1.734"/>
          <path id="Trazado_30104" data-name="Trazado 30104" d="M108.142,339.12l25.253-3.845,25.253-3.845-25.253-3.845-25.253-3.845" transform="translate(-108.142 -276.406)" fill="none" stroke="#ebe1ff" stroke-linecap="round" stroke-linejoin="round" stroke-width="1.734"/>
          <path id="Trazado_30105" data-name="Trazado 30105" d="M158.648,357.448,133.395,353.6l-25.253-3.845,25.253-3.845,25.253-3.845" transform="translate(-108.142 -278.957)" fill="none" stroke="#ebe1ff" stroke-linecap="round" stroke-linejoin="round" stroke-width="1.734"/>
        </g>
      </g>
      <path id="Trazado_30106" data-name="Trazado 30106" d="M356.194,299.473c19.846-6.393,37.9-20.927,66.939-26.769" transform="translate(-89.343 -143.852)" fill="none" stroke="#a777ce" stroke-linecap="round" stroke-linejoin="round" stroke-width="1.734"/>
      <g id="Grupo_32993" data-name="Grupo 32993" transform="translate(139.104)">
        <path id="Trazado_30107" data-name="Trazado 30107" d="M374.507,292.687c-.011-1.488.257-3.027-.685-4.179l-.04-.914,1.583-10.878-12.128-.5,1.562,10.749s-4.94,3.7-4.912,6.814c.016,1.828,1.649,3.541,2.995,4.647l.152,2.049a1.26,1.26,0,0,0,1.349,1.163l.455-.034A1.258,1.258,0,0,0,366,300.252l-.064-.861h0l.047.648a1.26,1.26,0,0,0,1.349,1.162l.455-.034a1.26,1.26,0,0,0,1.162-1.349l-.028-.382a1.259,1.259,0,0,0,1.348,1.162l.455-.034a1.258,1.258,0,0,0,1.162-1.348l-.02-.265.043,0a1.255,1.255,0,0,0,1.283.857l.455-.034a1.259,1.259,0,0,0,1.162-1.349l-.29-3.9Z" transform="translate(-228.961 -144.341)" fill="#ff5754"/>
        <path id="Trazado_30108" data-name="Trazado 30108" d="M231.341,244.483l-10.417,4.873s-5.68-2.421-8.359-.838c-1.574.93-2.238,3.2-2.521,4.92l-1.7,1.158a1.259,1.259,0,0,0-.331,1.749l.257.377a1.259,1.259,0,0,0,1.749.331l.176-.121a1.259,1.259,0,0,0-.331,1.75l.257.376a1.259,1.259,0,0,0,1.75.331l.536-.366h0l-.22.15a1.259,1.259,0,0,0-.331,1.749l.257.377a1.259,1.259,0,0,0,1.749.331l.22-.15.024.035a1.255,1.255,0,0,0-.1,1.539l.257.377a1.259,1.259,0,0,0,1.749.331l3.23-2.2,1.582-.931a6.515,6.515,0,0,0,2.793-3.317l.77-.493,9.315-1.3ZM210.66,256.617l.075-.052h0Z" transform="translate(-207.797 -139.925)" fill="#ff5754"/>
        <path id="Trazado_30109" data-name="Trazado 30109" d="M306.4,141.528a10.567,10.567,0,0,1-7.34-1.743,8.01,8.01,0,0,1-2.83-4.674,10.84,10.84,0,0,1,3.816-10.324,8.187,8.187,0,0,1,5.581-1.741c2.63.213,4.946,1.816,7.522,2.384a17.271,17.271,0,0,0,5.756.035,32.546,32.546,0,0,1,5.762-.419,8.438,8.438,0,0,1,5.3,2.007,4.922,4.922,0,0,1,1.4,5.255,21.74,21.74,0,0,1,3.831,12.814,11.99,11.99,0,0,1-1.63,5.9,6.38,6.38,0,0,1-5.067,3.1,125.248,125.248,0,0,0-13.619-7.289c-3.586-1.6-7.37-3.116-10.041-5.995" transform="translate(-220.076 -123.023)" fill="#1b141c"/>
        <rect id="Rectángulo_7611" data-name="Rectángulo 7611" width="15.001" height="20.226" transform="translate(90.58 36.942)" fill="#ff5754"/>
        <path id="Trazado_30110" data-name="Trazado 30110" d="M313.02,165.938v6.256c3.417.142,11.253-.218,14.442-6.228l-2.2-.028Z" transform="translate(-222.439 -128.995)" fill="#da2727"/>
        <g id="Grupo_32984" data-name="Grupo 32984" transform="translate(58.57 210.976)">
          <path id="Trazado_30111" data-name="Trazado 30111" d="M286.841,368.112c-3.615-.033-7.307.05-11,.025l-.008,10.073.031,12.45.083,12.455a5.593,5.593,0,0,0,11.1.958l2.216-12.257,2.164-12.261,1.976-11.411Q290.121,368.14,286.841,368.112Z" transform="translate(-275.835 -368.104)" fill="#ff5754"/>
        </g>
        <path id="Trazado_30112" data-name="Trazado 30112" d="M296.749,247.389h41.066l1.636-55.736c.147-5.016-2.589-9.479-6.716-10.879l-14.777-5.014-15.983,5.106c-4.2,1.341-7.006,5.843-6.857,10.922Z" transform="translate(-219.947 -130.362)" fill="#ff5754"/>
        <path id="Trazado_30113" data-name="Trazado 30113" d="M301.025,291.457H333.22c4.4,0,7.655-5.713,6.972-12.127l-2.646-24.881H296.7l-2.646,24.881C293.37,285.744,296.625,291.457,301.025,291.457Z" transform="translate(-219.787 -141.312)" fill="#ff5754"/>
        <g id="Grupo_32985" data-name="Grupo 32985" transform="translate(107.266 210.222)">
          <path id="Trazado_30114" data-name="Trazado 30114" d="M332.4,367.571l1.473,9.919,2.009,13.172,2.071,13.168a5.4,5.4,0,0,0,10.726-.716l.3-13.332.239-13.329.129-9.224Q340.877,367.42,332.4,367.571Z" transform="translate(-332.402 -367.228)" fill="#ff5754"/>
        </g>
        <path id="Trazado_30115" data-name="Trazado 30115" d="M304.227,146.387c0-9.911,6.629-17.945,14.807-17.945s14.806,8.034,14.806,17.945a20.827,20.827,0,0,1-2,9,16.874,16.874,0,0,1-5.261,6.419,12.931,12.931,0,0,1-4.777,2.157,18.247,18.247,0,0,1-3.51.2q-1.9.026-3.8-.049a15.68,15.68,0,0,1-4.432-.612,8.107,8.107,0,0,1-3.282-2.143,9.042,9.042,0,0,1-2.386-6.132v-6.3A21.694,21.694,0,0,1,304.227,146.387Z" transform="translate(-221.216 -123.777)" fill="#ff5754"/>
        <g id="Grupo_32987" data-name="Grupo 32987" transform="translate(108.872 21.077)">
          <path id="Trazado_30116" data-name="Trazado 30116" d="M334.724,148.915a3.249,3.249,0,0,1,3.026-1.4,4.193,4.193,0,0,1,2.979,1.628,4.66,4.66,0,0,1,.881,3.008,4.8,4.8,0,0,1-1.166,3.038,4.4,4.4,0,0,1-3.224,1.451,3.233,3.233,0,0,1-2.953-1.686Z" transform="translate(-334.268 -147.507)" fill="#ff5754"/>
          <g id="Grupo_32986" data-name="Grupo 32986" transform="translate(2.691 1.619)">
            <path id="Trazado_30117" data-name="Trazado 30117" d="M338.028,155.009a5.33,5.33,0,0,1,.365-5.621" transform="translate(-337.395 -149.388)" fill="none" stroke="#da2727" stroke-linecap="round" stroke-linejoin="round" stroke-width="0.754"/>
            <path id="Trazado_30118" data-name="Trazado 30118" d="M337.718,152.23a3.985,3.985,0,0,1,2.138,2.092" transform="translate(-337.44 -149.783)" fill="none" stroke="#da2727" stroke-linecap="round" stroke-linejoin="round" stroke-width="0.754"/>
          </g>
        </g>
        <g id="Grupo_32989" data-name="Grupo 32989" transform="translate(37.929 236.624)">
          <path id="Trazado_30119" data-name="Trazado 30119" d="M285.422,404.277c-.008.672-.04,1.385-.081,2.114-.024.446-.057.891-.089,1.345-.049.64-.106,1.289-.162,1.913-.122,1.377-.26,2.665-.381,3.71-.162,1.475-.283,2.455-.283,2.455l-32.157-.024a2.006,2.006,0,0,1-.008-2.431,15.088,15.088,0,0,1,7.883-6.23,20.645,20.645,0,0,0,9.034-5.478c.057-.065.114-.121.162-.186a17.069,17.069,0,0,0,1.418-1.807c.049-.065.09-.138.13-.2.211-.316.4-.624.584-.924,1.75-2.876,6.011,4.958,6.011,4.958s5.728-4.051,7.333-3.467C285.333,400.217,285.471,401.984,285.422,404.277Z" transform="translate(-251.858 -397.898)" fill="#361274"/>
          <path id="Trazado_30120" data-name="Trazado 30120" d="M284.711,415.856c.1,1.466.087,2.458.087,2.458l-32.536-.028a2.006,2.006,0,0,1,0-2.43Z" transform="translate(-251.858 -400.397)" fill="#d5d5d1"/>
          <path id="Trazado_30121" data-name="Trazado 30121" d="M276.1,402.187l-.972,1.247a.478.478,0,0,1-.672.081l-2.293-1.8a17.066,17.066,0,0,0,1.418-1.807c.049-.065.09-.138.13-.2l2.309,1.807A.47.47,0,0,1,276.1,402.187Z" transform="translate(-254.683 -398.15)" fill="#d5d5d1"/>
          <g id="Grupo_32988" data-name="Grupo 32988" transform="translate(13.625 8.493)">
            <path id="Trazado_30122" data-name="Trazado 30122" d="M287.543,407.764c-.024.446-.057.891-.089,1.345a12.454,12.454,0,0,1-4.011,1.6,11.963,11.963,0,0,1-3,.259c-1-.033-1.937-.146-2.82-.186a7.073,7.073,0,0,0-2.4.251,5.989,5.989,0,0,0-2.018,1.1,6.786,6.786,0,0,0-2.325,3.849l-3.2-.843a9.77,9.77,0,0,1,3.93-5.218,8.539,8.539,0,0,1,3.038-1.264,9.088,9.088,0,0,1,3.177-.024c.988.145,1.9.356,2.762.469a10.264,10.264,0,0,0,2.6.04A11.351,11.351,0,0,0,287.543,407.764Z" transform="translate(-267.685 -407.764)" fill="#d5d5d1"/>
          </g>
        </g>
        <g id="Grupo_32991" data-name="Grupo 32991" transform="translate(112.077 236.888)">
          <path id="Trazado_30123" data-name="Trazado 30123" d="M337.994,415.712v.023h19.82v-1.79q0-.333-.023-.668a10.3,10.3,0,0,0-.589-2.91,10.766,10.766,0,0,0-1.782-3.158l-4.979-6.14a2.862,2.862,0,0,0-2.863-2.864h-4.3a2.847,2.847,0,0,0-2.681,1.861L338.455,405a4.884,4.884,0,0,0-.294.923c-.009.04-.016.071-.024.111a1.141,1.141,0,0,0-.032.167,4.685,4.685,0,0,0-.079,1.011c.008.35.016.787.016,1.288.008.2.008.405.008.628,0,.486,0,1.018-.008,1.6,0,.772-.008,1.63-.024,2.553Q337.994,414.436,337.994,415.712Z" transform="translate(-337.991 -398.205)" fill="#361274"/>
          <path id="Trazado_30124" data-name="Trazado 30124" d="M351.591,416.411v1.781l-13.6-.016q0-1.277.016-2.434h13.568Q351.592,416.076,351.591,416.411Z" transform="translate(-337.991 -400.646)" fill="#a8a8a5"/>
          <path id="Trazado_30125" data-name="Trazado 30125" d="M349.133,404.284h-4.624a1.252,1.252,0,0,1-1.253-1.253h0a1.253,1.253,0,0,1,1.253-1.253h4.624a1.253,1.253,0,0,1,1.253,1.253h0A1.252,1.252,0,0,1,349.133,404.284Z" transform="translate(-338.724 -398.702)" fill="#d5d5d1"/>
          <path id="Trazado_30126" data-name="Trazado 30126" d="M351.477,406.8h-5.93a.6.6,0,0,1-.6-.6h0a.6.6,0,0,1,.6-.6h5.93a.6.6,0,0,1,.6.6h0A.6.6,0,0,1,351.477,406.8Z" transform="translate(-338.959 -399.234)" fill="#d5d5d1"/>
          <path id="Trazado_30127" data-name="Trazado 30127" d="M352.766,409.188h-5.929a.6.6,0,0,1-.6-.6h0a.6.6,0,0,1,.6-.6h5.929a.6.6,0,0,1,.6.6h0A.6.6,0,0,1,352.766,409.188Z" transform="translate(-339.138 -399.566)" fill="#d5d5d1"/>
          <path id="Trazado_30128" data-name="Trazado 30128" d="M358.912,415.758v2.434l-11.812-.014a1.2,1.2,0,0,1-1.2-1.21v-.024a1.206,1.206,0,0,1,1.205-1.2h11.8Z" transform="translate(-339.091 -400.646)" fill="#d5d5d1"/>
          <g id="Grupo_32990" data-name="Grupo 32990" transform="translate(0.033 7.994)">
            <path id="Trazado_30129" data-name="Trazado 30129" d="M338.031,408.5c.008.35.016.787.016,1.288.008.2.008.405.008.628a5.127,5.127,0,0,1,.39.43,6.464,6.464,0,0,1,1.439,4.024l3.142-.183a9.269,9.269,0,0,0-2.673-5.6,8.467,8.467,0,0,0-2.242-1.6A4.684,4.684,0,0,0,338.031,408.5Z" transform="translate(-338.029 -407.491)" fill="#a8a8a5"/>
          </g>
        </g>
        <path id="Trazado_30130" data-name="Trazado 30130" d="M277.636,329.2c-.788,3.028-1.517,5.973-2.148,8.724a4.959,4.959,0,0,0-.125,1.026l-.1,5.184C279.474,340.471,279.876,334.228,277.636,329.2Z" transform="translate(-217.185 -151.714)" fill="#7986cb"/>
        <path id="Trazado_30131" data-name="Trazado 30131" d="M343.728,326.7l-.283,5.566-1.717,33.72-16.244,1.239s-3.649-22.184-5.261-32.048-5.2-40.467-5.2-40.467l-2.858.627c-2.97,9.171-15.991,46.361-15.991,46.361l-4.82,27.169L274.512,367.7l.649-33.571c4.209-3.664,4.612-9.9,2.372-14.938,4.783-18.409,11.7-39.929,11.7-39.929l4.5-21.96h41.525l4.119,21.96c3.133,15.879,4.014,33.52,4.253,42.13C343.728,324.724,343.728,326.7,343.728,326.7Z" transform="translate(-217.081 -141.709)" fill="#080033"/>
        <path id="Trazado_30132" data-name="Trazado 30132" d="M287.261,185.084l-28.475,38.66-23.8,7.858a2.779,2.779,0,0,0-1.865,3.141l.008.038-6.1,2.589,2.6,12.357,6.618-.709a2.787,2.787,0,0,0,3.381,1.828l27.868-8.173c1.795-4.542,6.151-8.2,11.25-7.33l7.563-9.756Z" transform="translate(-210.474 -131.659)" fill="#fff"/>
        <path id="Trazado_30133" data-name="Trazado 30133" d="M274.041,250.777l3.86-1.132a10.793,10.793,0,0,0,5.484-3.739l1.906-2.459C280.192,242.581,275.836,246.236,274.041,250.777Z" transform="translate(-217.015 -139.763)" fill="#895cd8"/>
        <path id="Trazado_30134" data-name="Trazado 30134" d="M381.912,225.794l-2.869-3.142a22.612,22.612,0,0,0,5.657,17.609l.45-4.8A12.58,12.58,0,0,0,381.912,225.794Z" transform="translate(-231.603 -136.887)" fill="#895cd8"/>
        <path id="Trazado_30135" data-name="Trazado 30135" d="M374.148,217.324,344.1,184.367l.386,22-.791,9.872,15.32,13.835-1.485,32.482a2.488,2.488,0,0,0,2.484,2.6l.045,5.454,13.32.4,1.172-5.291a1.619,1.619,0,0,0,.194.008,2.389,2.389,0,0,0,2.38-2.164l2.684-28.633A22.612,22.612,0,0,1,374.148,217.324Z" transform="translate(-226.708 -131.56)" fill="#d9d9d9"/>
        <path id="Trazado_30136" data-name="Trazado 30136" d="M273.014,383.314l19.994,1.457-.991,4.653-18.442-1.962Z" transform="translate(-216.872 -159.245)" fill="#7986cb"/>
        <path id="Trazado_30137" data-name="Trazado 30137" d="M351.637,381.732l-19.994,1.457.991,4.653,18.442-1.962Z" transform="translate(-225.031 -159.024)" fill="#7986cb"/>
        <path id="Trazado_30138" data-name="Trazado 30138" d="M275.835,388.363v2.626l13.985.475.274-1.551Z" transform="translate(-217.265 -159.947)" fill="#da2727"/>
        <path id="Trazado_30139" data-name="Trazado 30139" d="M349.523,386.81l-.055,3.09H335.79l-.244-1.6Z" transform="translate(-225.574 -159.731)" fill="#da2727"/>
        <path id="Trazado_30140" data-name="Trazado 30140" d="M334.46,142.629a8.137,8.137,0,0,1-1.288,4.779,9.132,9.132,0,0,1-3.963,3.442,18.652,18.652,0,0,0-.459-5.044,6.724,6.724,0,0,0-2.685-3.661,8.211,8.211,0,0,0-4.911-.918,47.871,47.871,0,0,0-6.721,1.188,23.537,23.537,0,0,1-6.771.684,9.518,9.518,0,0,1-6.135-2.647c1.667-3.084,3.2-6.231,5.634-8.757a14.847,14.847,0,0,1,9.111-4.791,15.006,15.006,0,0,1,7.8,1.682,16.6,16.6,0,0,1,6.3,5.089C332.183,136.19,334.31,139.537,334.46,142.629Z" transform="translate(-220.84 -123.557)" fill="#1b141c"/>
        <path id="Trazado_30141" data-name="Trazado 30141" d="M332.371,151.773c-.026,3.5-.5,7.1-2.391,10.05a13.7,13.7,0,0,1-6.721,5.219,23.34,23.34,0,0,1-8.5,1.336,18.728,18.728,0,0,1-6.115-.908,9.58,9.58,0,0,1-4.892-3.647,5.045,5.045,0,0,1-.367-4.542,3.59,3.59,0,0,1,1.293-1.821,3.412,3.412,0,0,1,2.371-.3,15.005,15.005,0,0,1,3.061,1.259,4.978,4.978,0,0,0,3.21.535c1.35-.34,2.378-1.6,3.764-1.733a7.552,7.552,0,0,1,3.034.823,7.672,7.672,0,0,0,6.306-.742,8.968,8.968,0,0,0,3-2.986,9.914,9.914,0,0,0,.515-.938c.12-.251.063-.865.261-1.056s.713-.044.95-.109A10.19,10.19,0,0,0,332.371,151.773Z" transform="translate(-221.046 -127.024)" fill="#1b141c"/>
        <g id="Grupo_32992" data-name="Grupo 32992" transform="translate(82.477 21.708)">
          <path id="Trazado_30142" data-name="Trazado 30142" d="M308.163,152.279c0,.766-.43,1.387-.962,1.387s-.962-.621-.962-1.387.43-1.386.962-1.386S308.163,151.514,308.163,152.279Z" transform="translate(-303.972 -148.609)" fill="#1b141c"/>
          <path id="Trazado_30143" data-name="Trazado 30143" d="M319.99,152.279c0,.766-.43,1.387-.962,1.387s-.962-.621-.962-1.387.431-1.386.962-1.386S319.99,151.514,319.99,152.279Z" transform="translate(-305.618 -148.609)" fill="#1b141c"/>
          <path id="Trazado_30144" data-name="Trazado 30144" d="M312.808,151.423a5.155,5.155,0,0,1-.537,3.279,4.561,4.561,0,0,0-.744,1.692,1.634,1.634,0,0,0,1.208,1.664" transform="translate(-304.708 -148.683)" fill="none" stroke="#1b141c" stroke-linecap="round" stroke-linejoin="round" stroke-width="0.885"/>
          <path id="Trazado_30145" data-name="Trazado 30145" d="M308.915,161.436a3.393,3.393,0,1,0,6.785,0Z" transform="translate(-304.345 -150.076)" fill="#fff"/>
          <path id="Trazado_30146" data-name="Trazado 30146" d="M307.734,148.241a1.7,1.7,0,0,1,.832.174.691.691,0,0,1,.365.714.7.7,0,0,1-.436.455,2.038,2.038,0,0,1-.641.114l-3.09.217c-.293.02-1.153.132-1.159-.325-.005-.417.718-.626,1-.74A8.148,8.148,0,0,1,307.734,148.241Z" transform="translate(-303.606 -148.24)" fill="#1b141c"/>
          <path id="Trazado_30147" data-name="Trazado 30147" d="M318.411,148.241a1.7,1.7,0,0,0-.832.174.691.691,0,0,0-.365.714.7.7,0,0,0,.436.455,2.038,2.038,0,0,0,.641.114l3.09.217c.293.02,1.153.132,1.159-.325.005-.417-.718-.626-1-.74A8.148,8.148,0,0,0,318.411,148.241Z" transform="translate(-305.498 -148.24)" fill="#1b141c"/>
        </g>
        <path id="Trazado_30148" data-name="Trazado 30148" d="M227.191,248.056l-1.973.923,2.58,8.2,1.288-.088Z" transform="translate(-210.221 -140.422)" fill="#da2727"/>
        <path id="Trazado_30149" data-name="Trazado 30149" d="M365,284.627l10.046.335-.223,1.534-9.509.285Z" transform="translate(-229.673 -145.512)" fill="#da2727"/>
        <path id="Trazado_30150" data-name="Trazado 30150" d="M236.252,257.052l-6.619.709-2.6-12.357,6.1-2.589Z" transform="translate(-210.474 -139.693)" fill="#895cd8"/>
        <path id="Trazado_30151" data-name="Trazado 30151" d="M377.185,278.784l-1.172,5.291-13.32-.4-.045-5.455Z" transform="translate(-229.346 -144.621)" fill="#895cd8"/>
        <path id="Trazado_30152" data-name="Trazado 30152" d="M291.458,374.128l4.116-27.337,15.9-46.061" transform="translate(-219.439 -147.753)" fill="none" stroke="#6d92d0" stroke-miterlimit="10" stroke-width="0.867"/>
        <line id="Línea_24" data-name="Línea 24" x1="10.485" y1="73.148" transform="translate(100.743 152.229)" fill="none" stroke="#6d92d0" stroke-miterlimit="10" stroke-width="0.867"/>
        <path id="Trazado_30153" data-name="Trazado 30153" d="M319.83,275.867a174.6,174.6,0,0,1,.116,18.433" transform="translate(-223.387 -144.293)" fill="none" stroke="#6d92d0" stroke-miterlimit="10" stroke-width="0.867"/>
        <path id="Trazado_30154" data-name="Trazado 30154" d="M314.688,276.771q.022,3.6.046,7.205c.011,1.739.065,3.615,1.119,5,1.106,1.453,3.032,1.988,4.839,2.26" transform="translate(-222.671 -144.418)" fill="none" stroke="#6d92d0" stroke-miterlimit="10" stroke-width="0.867"/>
        <path id="Trazado_30155" data-name="Trazado 30155" d="M293.962,279.275a10.129,10.129,0,0,0,11.774-8.163" transform="translate(-219.787 -143.631)" fill="none" stroke="#6d92d0" stroke-miterlimit="10" stroke-width="0.867"/>
        <path id="Trazado_30156" data-name="Trazado 30156" d="M346.036,279.406a10.125,10.125,0,0,1-10.721-8.294" transform="translate(-225.542 -143.631)" fill="none" stroke="#6d92d0" stroke-miterlimit="10" stroke-width="0.867"/>
        <path id="Trazado_30157" data-name="Trazado 30157" d="M341.868,260.208c-1.609-15.258-2.882-30.714-2.608-46.054.118-6.606.236-13.221-.188-19.814-.221-3.438.7-6.949-1.343-9.721s-6.991-4.13-10.148-5.495a12.234,12.234,0,0,1-5.968,6.213,11.232,11.232,0,0,1-8.97.535,9.622,9.622,0,0,1-5.882-6.661c-4.151.968-9.011,2.122-11.064,5.858-1.225,2.232-1.258,4.9-1.26,7.447q-.01,11.007-.021,22.014c-.014,14.784.2,29.808-2.958,44.251,5.042,3.166,11.2,3.594,17.089,2.752s11.6-2.717,17.491-3.579S336.792,257.1,341.868,260.208Z" transform="translate(-219.439 -130.83)" fill="#fff"/>
        <path id="Trazado_30158" data-name="Trazado 30158" d="M332.882,180.464A16.6,16.6,0,0,1,325.2,188a15.277,15.277,0,0,1-12.208.724,13.114,13.114,0,0,1-7.894-8.6c1.193-.358,2.4-.641,3.559-.91a9.641,9.641,0,0,0,5.88,6.664,11.255,11.255,0,0,0,8.969-.538,12.2,12.2,0,0,0,5.969-6.215C330.487,179.554,331.666,179.994,332.882,180.464Z" transform="translate(-221.337 -130.83)" fill="#895cd8"/>
        <path id="Trazado_30159" data-name="Trazado 30159" d="M353.53,336.606l-.283,5.566a4.227,4.227,0,0,1-3.47,2.484c-2.671,0-4.828-3.626-4.828-8.1s2.156-8.1,4.828-8.1c1.463,0,2.776,1.1,3.657,2.828C353.53,334.628,353.53,336.606,353.53,336.606Z" transform="translate(-226.882 -151.612)" fill="#7986cb"/>
        <rect id="Rectángulo_7612" data-name="Rectángulo 7612" width="26.52" height="12.923" rx="1.992" transform="translate(83.589 72.842)" fill="#895cd8"/>
        <path id="Trazado_30160" data-name="Trazado 30160" d="M341.871,272.251c-5.082-3.112-9.939-3.12-15.834-2.254s-11.6,2.738-17.491,3.574-12.044.418-17.088-2.754c.194-.9.38-1.791.545-2.686,4.917,2.35,10.6,2.6,16.087,1.821,6.223-.888,12.252-2.866,18.476-3.783,5.484-.8,10.125-.9,14.819,1.351Q341.62,269.894,341.871,272.251Z" transform="translate(-219.439 -142.871)" fill="#895cd8"/>
      </g>
      <path id="Trazado_30161" data-name="Trazado 30161" d="M235.573,271.112c1.052,1.008,2.11,2.008,3.189,2.982,21.7,19.581,51.793,27.747,81.014,28.251a59.747,59.747,0,0,0,19.633-3.094" transform="translate(-72.558 -143.631)" fill="none" stroke="#a777ce" stroke-linecap="round" stroke-linejoin="round" stroke-width="1.734"/>
      <g id="Grupo_33000" data-name="Grupo 33000" transform="translate(286.251 34.23)">
        <circle id="Elipse_540" data-name="Elipse 540" cx="8.717" cy="8.717" r="8.717" transform="translate(238.761 108.946) rotate(-45)" fill="#080033"/>
        <path id="Rectángulo_7613" data-name="Rectángulo 7613" d="M4.114,0h0A4.114,4.114,0,0,1,8.227,4.114V23.887a0,0,0,0,1,0,0H0a0,0,0,0,1,0,0V4.114A4.114,4.114,0,0,1,4.114,0Z" transform="translate(72.704 70.096)" fill="#486363"/>
        <path id="Trazado_30162" data-name="Trazado 30162" d="M479.418,277.559h0a2.057,2.057,0,0,1-2.057-2.057V255.729a2.056,2.056,0,0,1,2.057-2.057h0a2.056,2.056,0,0,1,2.057,2.057V275.5A2.057,2.057,0,0,1,479.418,277.559Z" transform="translate(-392.455 -175.433)" fill="#486363"/>
        <path id="Trazado_30163" data-name="Trazado 30163" d="M455.466,276.065h0a2.057,2.057,0,0,1-2.057-2.057V254.235a2.056,2.056,0,0,1,2.057-2.057h0a2.057,2.057,0,0,1,2.057,2.057v19.773A2.057,2.057,0,0,1,455.466,276.065Z" transform="translate(-389.122 -175.226)" fill="#486363"/>
        <path id="Trazado_30164" data-name="Trazado 30164" d="M626.864,255.7h0a2.057,2.057,0,0,1-2.057-2.057V233.866a2.057,2.057,0,0,1,2.057-2.057h0a2.056,2.056,0,0,1,2.057,2.057v19.773A2.057,2.057,0,0,1,626.864,255.7Z" transform="translate(-412.974 -172.391)" fill="#486363"/>
        <g id="Grupo_32994" data-name="Grupo 32994" transform="translate(169.039)">
          <rect id="Rectángulo_7614" data-name="Rectángulo 7614" width="3.82" height="64.956" transform="translate(6.792 7.323)" fill="#486363"/>
          <path id="Trazado_30165" data-name="Trazado 30165" d="M587.759,245.683h-7.924a4.739,4.739,0,0,0-4.74,4.739h17.4A4.739,4.739,0,0,0,587.759,245.683Z" transform="translate(-575.095 -174.322)" fill="#486363"/>
          <path id="Trazado_30166" data-name="Trazado 30166" d="M588.886,167.178a4.392,4.392,0,1,1-4.393-4.392A4.393,4.393,0,0,1,588.886,167.178Z" transform="translate(-575.792 -162.786)" fill="#486363"/>
        </g>
        <path id="Trazado_30167" data-name="Trazado 30167" d="M421.814,327.234A4.231,4.231,0,1,1,417.583,323,4.232,4.232,0,0,1,421.814,327.234Z" transform="translate(-383.548 -185.081)" fill="#486363"/>
        <path id="Trazado_30168" data-name="Trazado 30168" d="M420.775,313.86a2.991,2.991,0,1,1-2.991-2.991A2.992,2.992,0,0,1,420.775,313.86Z" transform="translate(-383.748 -183.393)" fill="#486363"/>
        <rect id="Rectángulo_7615" data-name="Rectángulo 7615" width="30.647" height="10.588" transform="translate(215.948 104.084)" fill="#080033"/>
        <path id="Rectángulo_7616" data-name="Rectángulo 7616" d="M0,0H29.025a1.621,1.621,0,0,1,1.621,1.621v0a1.621,1.621,0,0,1-1.621,1.621H0a0,0,0,0,1,0,0V0A0,0,0,0,1,0,0Z" transform="translate(45.684 144.109) rotate(90)" fill="#080033"/>
        <path id="Trazado_30169" data-name="Trazado 30169" d="M557.243,239.427c-30.241,0-64.91,14.452-78.478,20.7a30.164,30.164,0,0,1-15.612,2.7,58.568,58.568,0,0,1-30.511-12.871,8.893,8.893,0,0,0-14.375,7.018v64.362a10.056,10.056,0,0,0,10.056,10.056h0a10.056,10.056,0,0,0,10.056-10.056h0a15.92,15.92,0,0,1,10.876-15.077,78.869,78.869,0,0,1,25.118-4.044h65.794a9.483,9.483,0,0,1,9.483,9.483v68.4h62.993V275.237a26.747,26.747,0,0,0-10.241-21.09C593.572,247.248,578.805,239.427,557.243,239.427Z" transform="translate(-384.232 -173.451)" fill="#9fa8da"/>
        <path id="Trazado_30170" data-name="Trazado 30170" d="M378.73,416.407H622.7v-8.025a5.547,5.547,0,0,0-5.547-5.547H392.3a13.572,13.572,0,0,0-13.572,13.572Z" transform="translate(-378.73 -196.191)" fill="#9fa8da"/>
        <path id="Trazado_30171" data-name="Trazado 30171" d="M663.931,317.654h0a7.771,7.771,0,0,1-7.771-7.771v-50.8a7.77,7.77,0,0,1,7.771-7.771h0a7.771,7.771,0,0,1,7.771,7.771v50.8A7.771,7.771,0,0,1,663.931,317.654Z" transform="translate(-417.337 -175.105)" fill="#9fa8da"/>
        <rect id="Rectángulo_7617" data-name="Rectángulo 7617" width="17.825" height="33.475" transform="translate(168.412 21.047)" fill="#556bc1"/>
        <g id="Grupo_32995" data-name="Grupo 32995" transform="translate(161.888 14.841)">
          <path id="Trazado_30172" data-name="Trazado 30172" d="M582.855,198.8l-7.264-8.719-7.264-8.719h29.056l-7.264,8.719Z" transform="translate(-567.002 -180.212)" fill="#78a4a5"/>
          <path id="Trazado_30173" data-name="Trazado 30173" d="M582.855,211.739l7.264,8.719,7.264,8.719H568.327l7.264-8.719Z" transform="translate(-567.002 -184.439)" fill="#78a4a5"/>
          <path id="Trazado_30174" data-name="Trazado 30174" d="M597.343,182.326h-29.4a1.15,1.15,0,0,1-1.15-1.15h0a1.15,1.15,0,0,1,1.15-1.15h29.4a1.151,1.151,0,0,1,1.151,1.15h0A1.151,1.151,0,0,1,597.343,182.326Z" transform="translate(-566.788 -180.026)" fill="#486363"/>
          <path id="Trazado_30175" data-name="Trazado 30175" d="M597.343,232.96h-29.4a1.15,1.15,0,0,1-1.15-1.15h0a1.151,1.151,0,0,1,1.15-1.151h29.4a1.151,1.151,0,0,1,1.151,1.151h0A1.151,1.151,0,0,1,597.343,232.96Z" transform="translate(-566.788 -187.072)" fill="#486363"/>
        </g>
        <rect id="Rectángulo_7618" data-name="Rectángulo 7618" width="21.539" height="33.475" transform="translate(166.555 21.047)" fill="#ffb74a"/>
        <g id="Grupo_32996" data-name="Grupo 32996" transform="translate(166.555 21.047)">
          <path id="Trazado_30176" data-name="Trazado 30176" d="M593.748,193.795l-10.77-1.64-10.77-1.64,10.77-1.64,10.77-1.64" transform="translate(-572.209 -187.236)" fill="none" stroke="#ff9029" stroke-linecap="round" stroke-linejoin="round" stroke-width="0.739"/>
          <path id="Trazado_30177" data-name="Trazado 30177" d="M572.209,201.612l10.77-1.64,10.77-1.64-10.77-1.64-10.77-1.64" transform="translate(-572.209 -188.323)" fill="none" stroke="#ff9029" stroke-linecap="round" stroke-linejoin="round" stroke-width="0.739"/>
          <path id="Trazado_30178" data-name="Trazado 30178" d="M593.748,209.428l-10.77-1.64-10.77-1.64,10.77-1.64,10.77-1.64" transform="translate(-572.209 -189.411)" fill="none" stroke="#ff9029" stroke-linecap="round" stroke-linejoin="round" stroke-width="0.739"/>
          <path id="Trazado_30179" data-name="Trazado 30179" d="M572.209,217.245l10.77-1.64,10.77-1.64-10.77-1.64-10.77-1.64" transform="translate(-572.209 -190.499)" fill="none" stroke="#ff9029" stroke-linecap="round" stroke-linejoin="round" stroke-width="0.739"/>
          <path id="Trazado_30180" data-name="Trazado 30180" d="M593.748,225.061l-10.77-1.64-10.77-1.64,10.77-1.64,10.77-1.64" transform="translate(-572.209 -191.587)" fill="none" stroke="#ff9029" stroke-linecap="round" stroke-linejoin="round" stroke-width="0.739"/>
        </g>
        <rect id="Rectángulo_7619" data-name="Rectángulo 7619" width="52.504" height="26.013" rx="6.077" transform="translate(151.489 84.898)" fill="#7986cb"/>
        <g id="Grupo_32997" data-name="Grupo 32997" transform="translate(45.833 98.491)">
          <circle id="Elipse_541" data-name="Elipse 541" cx="10.888" cy="10.888" r="10.888" fill="#080033"/>
          <path id="Trazado_30181" data-name="Trazado 30181" d="M449.058,288.99a5.294,5.294,0,1,1-5.294-5.294A5.294,5.294,0,0,1,449.058,288.99Z" transform="translate(-432.877 -278.103)" fill="#fff"/>
        </g>
        <g id="Grupo_32998" data-name="Grupo 32998" transform="translate(181.654 128.638)">
          <circle id="Elipse_542" data-name="Elipse 542" cx="12.848" cy="12.848" r="12.848" transform="translate(0 25) rotate(-76.63)" fill="#080033"/>
          <circle id="Elipse_543" data-name="Elipse 543" cx="6.247" cy="6.247" r="6.247" transform="translate(9.223 9.223)" fill="#fff"/>
        </g>
        <g id="Grupo_32999" data-name="Grupo 32999" transform="translate(188.137 170.208)">
          <circle id="Elipse_544" data-name="Elipse 544" cx="8.988" cy="8.988" r="8.988" fill="#080033"/>
          <circle id="Elipse_545" data-name="Elipse 545" cx="4.37" cy="4.37" r="4.37" transform="translate(4.617 4.617)" fill="#fff"/>
        </g>
        <path id="Trazado_30182" data-name="Trazado 30182" d="M472.447,292.767h-17.1a3.485,3.485,0,0,1-3.485-3.485h0a3.485,3.485,0,0,1,3.485-3.485h17.1a3.485,3.485,0,0,1,3.485,3.485h0A3.485,3.485,0,0,1,472.447,292.767Z" transform="translate(-388.907 -179.904)" fill="#080033"/>
      </g>
    </g>
  </g>
</svg>
